HIERARCHY
ROOT Hips
{
	OFFSET -3.958830 18.904000 13.208200
	CHANNELS 6 Xposition Yposition Zposition Zrotation Yrotation Xrotation 
	JOINT LHipJoint
	{
		OFFSET 0.000000 0.000000 0.000000
		CHANNELS 3 Zrotation Yrotation Xrotation
		JOINT LeftUpLeg
		{
			OFFSET 1.800000 -1.400000 0.085000
			CHANNELS 3 Zrotation Yrotation Xrotation
			JOINT LeftLeg
			{
				OFFSET 2.215000 -6.000000 0.000000
				CHANNELS 3 Zrotation Yrotation Xrotation
				JOINT LeftFoot
				{
					OFFSET 2.500000 -6.900000 0.000000
					CHANNELS 3 Zrotation Yrotation Xrotation
					JOINT LeftToeBase
					{
						OFFSET 0.200000 -0.500000 1.950000
						CHANNELS 3 Zrotation Yrotation Xrotation
						End Site
						{
							OFFSET 0.000000 0.000000 0.000000
						}
					}
				}
			}
		}
	}
	JOINT RHipJoint
	{
		OFFSET 0.000000 0.000000 0.000000
		CHANNELS 3 Zrotation Yrotation Xrotation
		JOINT RightUpLeg
		{
			OFFSET -1.800000 -1.400000 0.085000
			CHANNELS 3 Zrotation Yrotation Xrotation
			JOINT RightLeg
			{
				OFFSET -2.215000 -6.000000 0.000000
				CHANNELS 3 Zrotation Yrotation Xrotation
				JOINT RightFoot
				{
					OFFSET -2.500000 -6.900000 0.000000
					CHANNELS 3 Zrotation Yrotation Xrotation
					JOINT RightToeBase
					{
						OFFSET -0.200000 -0.500000 1.950000
						CHANNELS 3 Zrotation Yrotation Xrotation
						End Site
						{
							OFFSET 0.000000 0.000000 0.000000
						}
					}
				}
			}
		}
	}
	JOINT LowerBack
	{
		OFFSET 0.000000 0.000000 0.000000
		CHANNELS 3 Zrotation Yrotation Xrotation
		JOINT Spine
		{
			OFFSET -0.087000 1.940000 -0.288900
			CHANNELS 3 Zrotation Yrotation Xrotation
			JOINT Spine1
			{
				OFFSET 0.000000 1.950000 0.060000
				CHANNELS 3 Zrotation Yrotation Xrotation
				JOINT Neck
				{
					OFFSET 0.000000 0.000000 0.000000
					CHANNELS 3 Zrotation Yrotation Xrotation
					JOINT Neck1
					{
						OFFSET 0.000000 1.600000 0.340000
						CHANNELS 3 Zrotation Yrotation Xrotation
						JOINT Head
						{
							OFFSET 0.000000 1.667000 -0.240000
							CHANNELS 3 Zrotation Yrotation Xrotation
							End Site
							{
								OFFSET 0.000000 0.000000 0.000000
							}
						}
					}
				}
				JOINT LeftShoulder
				{
					OFFSET 0.000000 0.000000 0.000000
					CHANNELS 3 Zrotation Yrotation Xrotation
					JOINT LeftArm
					{
						OFFSET 2.700000 1.550000 -0.730000
						CHANNELS 3 Zrotation Yrotation Xrotation
						JOINT LeftForeArm
						{
							OFFSET 5.450000 0.000000 0.000000
							CHANNELS 3 Zrotation Yrotation Xrotation
							JOINT LeftHand
							{
								OFFSET 3.450000 0.000000 0.000000
								CHANNELS 3 Zrotation Yrotation Xrotation
								JOINT LeftHandIndex1
								{
									OFFSET 0.750000 0.000000 0.000000
									CHANNELS 3 Zrotation Yrotation Xrotation
									End Site
									{
										OFFSET 0.000000 0.000000 0.000000
									}
								}
							}
						}
					}
				}
				JOINT RightShoulder
				{
					OFFSET 0.000000 0.000000 0.000000
					CHANNELS 3 Zrotation Yrotation Xrotation
					JOINT RightArm
					{
						OFFSET -2.700000 1.550000 -0.730000
						CHANNELS 3 Zrotation Yrotation Xrotation
						JOINT RightForeArm
						{
							OFFSET -5.450000 0.000000 0.000000
							CHANNELS 3 Zrotation Yrotation Xrotation
							JOINT RightHand
							{
								OFFSET -3.450000 0.000000 0.000000
								CHANNELS 3 Zrotation Yrotation Xrotation
								JOINT RightHandIndex1
								{
									OFFSET -0.750000 0.000000 0.000000
									CHANNELS 3 Zrotation Yrotation Xrotation
									End Site
									{
										OFFSET 0.000000 0.000000 0.000000
									}
								}
							}
						}
					}
				}
			}
		}
	}
}
MOTION
Frames: 6
Frame Time: 0.016667
-1.261390 16.681750 -3.202200 -3.282507 -14.220914 4.325551 -14.841677 12.655097 3.302109 1.298217 -3.235511 -25.453397 -3.816333 3.646058 8.330733 -0.901013 3.040252 3.714524 -0.785290 -1.010690 -0.794640 18.594984 -11.287927 2.755438 -1.602078 -0.491913 -6.683277 4.985043 -5.266479 10.641936 0.040958 -3.945318 3.166544 -0.375980 1.042570 0.135380 -4.357608 -0.361202 -7.140722 13.135942 3.053803 5.589637 -4.165500 3.266631 0.344338 1.847546 -2.812955 -7.003505 -5.776216 3.987615 32.266273 -4.650310 3.847480 7.002650 -20.698678 2.150065 1.108821 -57.342978 1.220533 -5.701755 -27.318248 -23.459257 2.587990 -4.382785 2.663808 0.330900 0.544400 -0.457770 0.081820 16.394462 0.871322 3.613120 65.385471 1.297715 -9.766956 15.324132 27.026178 0.829974 2.156708 -0.947977 -0.686930 0.513390 0.767580 0.031080 
-1.259160 16.681310 -3.187150 -3.414361 -14.337945 4.291616 -14.852478 12.679941 3.299881 1.396788 -3.171477 -25.236291 -3.947525 3.660447 8.138730 -0.899892 3.052031 3.706617 -0.791130 -1.018160 -0.788670 18.581445 -11.275713 2.759340 -1.551277 -0.528024 -6.492466 4.971638 -5.281195 10.659812 0.037229 -3.947400 3.166424 -0.381060 1.030830 0.131340 -4.317812 -0.421583 -7.157115 13.049263 3.096329 5.723044 -3.747917 3.340604 0.467340 1.854457 -2.738949 -7.149448 -5.731939 3.795563 32.489330 -4.938930 3.851430 6.829540 -20.585748 1.923345 1.213305 -57.400958 1.303365 -5.747911 -27.985770 -23.402170 2.684578 -4.378930 2.657017 0.338430 0.538080 -0.451590 0.071950 16.320748 1.070087 3.799714 65.009551 0.933749 -10.154139 15.715488 27.771199 0.950481 2.150419 -0.943007 -0.688710 0.514330 0.770810 0.024210 
-1.256020 16.679710 -3.152590 -3.392000 -14.551266 4.337233 -14.866852 12.690321 3.294936 1.374669 -3.151336 -25.030210 -4.183261 3.705796 8.100568 -0.897463 3.089781 3.697808 -0.795560 -1.025600 -0.791750 18.570174 -11.266680 2.743119 -1.626476 -0.569296 -6.275102 4.876841 -5.304803 10.784860 0.033798 -3.975986 3.157780 -0.383030 1.039650 0.140530 -4.278668 -0.464452 -7.133653 12.788063 3.102224 5.632933 -3.426342 3.318676 0.714911 1.773164 -2.743716 -7.167585 -5.728928 3.633829 32.014340 -5.182040 3.797050 6.671480 -20.002214 2.162116 1.229614 -57.277937 1.441581 -5.685527 -29.660672 -23.397886 3.017773 -4.388937 2.673451 0.335130 0.547440 -0.454480 0.072200 15.957882 0.800257 3.836320 64.898729 0.570397 -10.477135 16.727458 28.596739 1.197240 2.138161 -0.956523 -0.688950 0.515200 0.776250 0.025080 
-1.249660 16.685400 -3.106330 -3.201532 -14.945231 4.093132 -14.871819 12.726391 3.285981 1.296817 -3.101970 -24.551883 -4.472295 3.805052 8.344346 -0.886069 3.124860 3.680224 -0.787580 -1.010050 -0.786730 18.557509 -11.277534 2.733508 -2.059984 -0.645869 -5.804430 4.933736 -5.376282 10.843007 0.013060 -4.016495 3.145229 -0.379700 1.024140 0.137900 -4.245641 -0.515277 -7.131648 12.492137 3.081433 5.801371 -3.382560 3.311108 0.884865 1.746674 -2.793349 -7.227700 -5.884585 3.700481 32.256354 -5.129090 3.836330 6.077440 -19.834298 2.333415 1.300205 -56.450980 2.066843 -5.939449 -31.715454 -24.067964 3.559172 -4.365165 2.689436 0.346620 0.534110 -0.438010 0.071590 15.875123 0.646652 3.888762 64.558014 0.121173 -10.808258 17.987112 29.221682 1.506284 2.135735 -0.956973 -0.683200 0.518020 0.770650 0.024270 
-1.240680 16.694630 -3.053310 -3.181212 -15.433758 3.817290 -14.869697 12.755144 3.258752 1.382968 -3.016079 -24.102718 -4.746984 3.948616 8.851781 -0.872095 3.182895 3.651354 -0.773020 -0.987070 -0.779950 18.555234 -11.294501 2.733885 -2.270397 -0.741873 -5.257579 4.771105 -5.382953 10.797971 -0.005659 -4.056140 3.131739 -0.369110 1.011150 0.139690 -4.238725 -0.531512 -7.114835 12.406405 3.090010 5.911873 -3.266551 3.319691 1.223075 1.665913 -2.790912 -7.251560 -5.914109 3.727447 32.328114 -4.911520 3.728530 5.561990 -19.831442 2.310643 1.412934 -55.249334 2.716658 -6.106108 -34.773137 -24.787361 4.345290 -4.346493 2.729364 0.346250 0.526650 -0.427230 0.071800 16.058363 0.626770 3.912182 63.417075 -0.373434 -10.917270 19.925785 29.478923 1.946208 2.133962 -0.974867 -0.672240 0.515810 0.763530 0.025340 
-1.230780 16.711720 -2.997110 -3.100162 -15.976266 3.554831 -14.875097 12.799098 3.244402 1.520448 -2.932682 -23.672686 -5.200333 4.163000 9.492597 -0.854658 3.282627 3.612856 -0.784230 -0.992980 -0.790600 18.540309 -11.311815 2.729738 -2.488599 -0.812856 -4.820351 4.580364 -5.409338 10.955817 -0.011749 -4.094310 3.123221 -0.372780 1.016060 0.138160 -4.197599 -0.573633 -7.113840 12.115661 3.190687 6.050331 -2.985666 3.440451 1.377988 1.622260 -2.754619 -7.401467 -5.901821 3.807346 32.545518 -4.816840 3.757900 5.612970 -19.814867 2.208761 1.616724 -53.957046 3.594548 -6.302102 -38.090197 -25.860085 5.327702 -4.340297 2.757955 0.344620 0.530360 -0.427160 0.067740 16.185256 0.731172 4.053309 61.945955 -1.104029 -10.999553 22.008820 29.626164 2.431895 2.130395 -0.983256 -0.673340 0.521300 0.771660 0.027630 
